HIERARCHY
ROOT Root
{
	OFFSET 0.00000 0.00000 0.00000
	CHANNELS 6 Xposition Yposition Zposition Zrotation Xrotation Yrotation
	JOINT Hip
	{
		OFFSET 0 0 0	
		CHANNELS 3 Zrotation Xrotation Yrotation
		JOINT Tummy
		{
			OFFSET 0 0.04 0	
			CHANNELS 3 Zrotation Xrotation Yrotation
			JOINT ChestBottom
			{
				OFFSET 0 0.194 0	
				CHANNELS 3 Zrotation Xrotation Yrotation
				JOINT ChestTop
				{
					OFFSET 0 0.166 0	
					CHANNELS 3 Zrotation Xrotation Yrotation
					JOINT LeftCollar
					{
						OFFSET 0 0.1 0	
						CHANNELS 3 Zrotation Xrotation Yrotation
						JOINT LeftUpperArm
						{
							OFFSET 0.156 -0.02 0.03	
							CHANNELS 3 Zrotation Xrotation Yrotation
							JOINT LeftForeArm
							{
								OFFSET 0.035 -0.27 -0.01	
								CHANNELS 3 Zrotation Xrotation Yrotation
								JOINT LeftHand
								{
									OFFSET 0.01 -0.27 0.01	
									CHANNELS 3 Zrotation Xrotation Yrotation
									End Site
									{
										OFFSET 0 -0.15 0
									}
								}
							}
						}
					}
					JOINT RightCollar
					{
						OFFSET 0 0.1 0	
						CHANNELS 3 Zrotation Xrotation Yrotation
						JOINT RightUpperArm
						{
							OFFSET -0.156 -0.02 0.03	
							CHANNELS 3 Zrotation Xrotation Yrotation
							JOINT RightForeArm
							{
								OFFSET -0.035 -0.27 -0.01	
								CHANNELS 3 Zrotation Xrotation Yrotation
								JOINT RightHand
								{
									OFFSET -0.01 -0.27 0.01	
									CHANNELS 3 Zrotation Xrotation Yrotation
									End Site
									{
										OFFSET 0 -0.15 0
									}
								}
							}
						}
					}
					JOINT Neck
					{
						OFFSET 0 0.1 0	
						CHANNELS 3 Zrotation Xrotation Yrotation
						JOINT Head
						{
							OFFSET 0 0.127 0.03	
							CHANNELS 3 Zrotation Xrotation Yrotation
							End Site
							{
								OFFSET 0 0.127 0.03
							}
						}
					}
				}
			}
		}
	}
	JOINT LeftHip
	{
		OFFSET 0 0 0	
		CHANNELS 3 Zrotation Xrotation Yrotation
		JOINT LeftThigh
		{
			OFFSET 0.088 -0.06 0	
			CHANNELS 3 Zrotation Xrotation Yrotation
			JOINT LeftLowerLeg
			{
				OFFSET 0 -0.39 0.02	
				CHANNELS 3 Zrotation Xrotation Yrotation
				JOINT LeftFootTop
				{
					OFFSET 0 -0.43 -0.02	
					CHANNELS 3 Zrotation Xrotation Yrotation
					JOINT LeftFootFront
					{
						OFFSET 0 -0.07 0.085	
						CHANNELS 3 Zrotation Xrotation Yrotation
						End Site
						{
							OFFSET 0 -0.005 0.09
						}
					}
				}
				JOINT LeftHeel
				{
					OFFSET 0 -0.43 -0.02	
					CHANNELS 3 Zrotation Xrotation Yrotation
					End Site
					{
						OFFSET 0 -0.075 -0.05
					}
				}
			}
		}
	}
	JOINT RightHip
	{
		OFFSET 0 0 0	
		CHANNELS 3 Zrotation Xrotation Yrotation
		JOINT RightThigh
		{
			OFFSET -0.088 -0.06 0	
			CHANNELS 3 Zrotation Xrotation Yrotation
			JOINT RightLowerLeg
			{
				OFFSET 0 -0.39 0.02	
				CHANNELS 3 Zrotation Xrotation Yrotation
				JOINT RightFootTop
				{
					OFFSET 0 -0.43 -0.02	
					CHANNELS 3 Zrotation Xrotation Yrotation
					JOINT RightFootFront
					{
						OFFSET 0 -0.07 0.085	
						CHANNELS 3 Zrotation Xrotation Yrotation
						End Site
						{
							OFFSET 0 -0.005 0.09
						}
					}
				}
				JOINT RightHeel
				{
					OFFSET 0 -0.43 -0.02	
					CHANNELS 3 Zrotation Xrotation Yrotation
					End Site
					{
						OFFSET 0 -0.075 -0.05
					}
				}
			}
		}
	}
}
MOTION
Frames: 9
Frame Time: 0.05
0 0.95795 0 -0 0 -0 -9.6917 10.775 63.542 1.6668 1.926 -16.487 1.6668 1.926 -16.487 1.3638 1.6514 -13.845 -0 0 -0 21.761 -9.3119 -11.354 -1.5512 -18.07 -38.465 -0 0 -0 -0 0 -0 -18.423 -29.797 -27.78 -5.902 0.0078847 2.3364 -0 0 -0 5.2123 -12.826 41.411 3.2908 -12.044 27.156 -9.6917 10.775 63.542 6.8414 -5.3777 1.6177 -0 0 -0 -0 0 -0 -0 0 -0 -0 0 -0 -9.6917 10.775 63.542 -1.8965 -27.519 1.2768 -0 0 -0 -0 0 -0 -0 0 -0 -0 0 -0 
0 0.95795 0 -0 0 -0 -10.863 12.256 64.39 1.1929 1.3424 -15.859 1.1929 1.3424 -15.859 0.97767 1.1506 -13.319 -0 0 -0 24.404 -6.4231 -4.8292 -0.8083 -14.113 -33.934 -0 0 -0 -0 0 -0 -24.802 -35.569 -34.103 -11.729 2.9691 -3.7709 -0 0 -0 5.7939 -12.46 40.915 3.6888 -12.305 27.229 -10.863 12.256 64.39 7.0652 -6.5412 2.1559 -0 0 -0 -0 0 -0 -0 0 -0 -0 0 -0 -10.863 12.256 64.39 -2.4552 -29.321 -0.026935 -0 0 -0 -0 0 -0 -0 0 -0 -0 0 -0 
0 0.95795 0 -0 0 -0 -13.013 13.951 65.743 0.79973 0.25845 -14.92 0.79973 0.25845 -14.92 0.66766 0.23123 -12.532 -0 0 -0 26.554 -5.0209 2.6154 0.97484 -7.328 -29.49 -0 0 -0 -0 0 -0 -33.32 -42.086 -42.804 -16.801 4.4804 -7.822 -0 0 -0 5.9664 -12.025 39.999 3.8442 -12.797 27.188 -13.013 13.951 65.743 7.4746 -9.5184 4.9339 -0 0 -0 -0 0 -0 -0 0 -0 -0 0 -0 -13.013 13.951 65.743 -3.4005 -31.949 0.42226 -0 0 -0 -0 0 -0 -0 0 -0 -0 0 -0 
0 0.95795 0 -0 0 -0 -15.658 15.524 67.433 0.58721 -0.89966 -13.718 0.58721 -0.89966 -13.718 0.50799 -0.74665 -11.523 -0 0 -0 29.176 -2.6761 6.429 2.9587 0.10907 -23.911 -0 0 -0 -0 0 -0 -44.033 -49.508 -53.538 -20.358 4.5563 -10.326 -0 0 -0 5.8122 -11.741 38.949 3.8378 -13.407 27.24 -15.658 15.524 67.433 7.7672 -13.993 8.3972 -0 0 -0 -0 0 -0 -0 0 -0 -0 0 -0 -15.658 15.524 67.433 -4.6104 -34.449 1.1652 -0 0 -0 -0 0 -0 -0 0 -0 -0 0 -0 
0 0.95795 0 -0 0 -0 -18.055 16.361 69.721 0.48319 -1.733 -12.703 0.48319 -1.733 -12.703 0.43188 -1.4492 -10.671 -0 0 -0 32.154 2.0915 8.5643 3.1876 6.561 -19.092 -0 0 -0 -0 0 -0 -55.217 -57.539 -63.952 -23.052 3.3047 -11.989 -0 0 -0 5.8237 -11.734 38.338 3.9761 -14.053 27.549 -18.055 16.361 69.721 8.4456 -19.494 11.541 -0 0 -0 -0 0 -0 -0 0 -0 -0 0 -0 -18.055 16.361 69.721 -6.4729 -36.03 0.28282 -0 0 -0 -0 0 -0 -0 0 -0 -0 0 -0 
0 0.95795 0 -0 0 -0 -19.963 15.914 72.733 0.79296 -2.2896 -11.955 0.79296 -2.2896 -11.955 0.69843 -1.9129 -10.044 -0 0 -0 33.964 9.3664 11.227 1.8208 11.075 -17.443 -0 0 -0 -0 0 -0 -66.443 -66.102 -71.846 -25.46 1.5611 -13.91 -0 0 -0 5.7294 -11.752 38.201 4.2938 -14.478 28.083 -19.963 15.914 72.733 9.8867 -24.854 14.698 -0 0 -0 -0 0 -0 -0 0 -0 -0 0 -0 -19.963 15.914 72.733 -8.1614 -36.51 -2.9827 -0 0 -0 -0 0 -0 -0 0 -0 -0 0 -0 
0 0.95795 0 -0 0 -0 -21.172 14.178 76.164 1.5772 -2.5953 -10.82 1.5772 -2.5953 -10.82 1.3581 -2.1608 -9.0922 -0 0 -0 33.608 17.332 14.741 0.01567 14.729 -18.579 -0 0 -0 -0 0 -0 -83.113 -73.718 -82.127 -27.883 0.77342 -15.237 -0 0 -0 4.9659 -11.835 37.481 4.3942 -14.627 28.32 -21.172 14.178 76.164 11.201 -28.284 17.051 -0 0 -0 -0 0 -0 -0 0 -0 -0 0 -0 -21.172 14.178 76.164 -9.1536 -35.402 -6.9702 -0 0 -0 -0 0 -0 -0 0 -0 -0 0 -0 
0 0.95795 0 -0 0 -0 -21.043 11.701 79.938 2.3609 -2.4854 -8.9602 2.3609 -2.4854 -8.9602 2.0095 -2.0634 -7.5327 -0 0 -0 32.086 24.578 18.801 -0.69396 18.058 -21.56 -0 0 -0 -0 0 -0 -107.39 -77.951 -98.563 -29.657 0.59434 -14.81 -0 0 -0 3.6943 -12.619 35.317 4.0091 -15.055 27.675 -21.043 11.701 79.938 10.956 -29.297 21.197 -0 0 -0 -0 0 -0 -0 0 -0 -0 0 -0 -21.043 11.701 79.938 -9.3789 -32.145 -9.1117 -0 0 -0 -0 0 -0 -0 0 -0 -0 0 -0 
0 0.95795 0 -0 0 -0 -19.493 8.9933 85.03 2.7738 -1.9553 -6.8263 2.7738 -1.9553 -6.8263 2.3458 -1.6205 -5.7402 -0 0 -0 30.676 30.205 23.255 0.4641 21.611 -25.467 -0 0 -0 -0 0 -0 -132.94 -79.537 -117.4 -30.914 0.045243 -14.571 -0 0 -0 2.5806 -14.237 31.336 3.4682 -16.042 25.447 -19.493 8.9933 85.03 9.2503 -30.866 22.082 -0 0 -0 -0 0 -0 -0 0 -0 -0 0 -0 -19.493 8.9933 85.03 -9.4308 -26.908 -9.8845 -0 0 -0 -0 0 -0 -0 0 -0 -0 0 -0 
